<svg width="17" height="17" viewBox="0 0 17 17" fill="none" xmlns="http://www.w3.org/2000/svg">
<path d="M2.125 4.25H3.54167H14.875" stroke="black" stroke-linecap="round" stroke-linejoin="round"/>
<path d="M13.4583 4.24984V14.1665C13.4583 14.5422 13.309 14.9026 13.0434 15.1682C12.7777 15.4339 12.4173 15.5832 12.0416 15.5832H4.95829C4.58257 15.5832 4.22223 15.4339 3.95656 15.1682C3.69088 14.9026 3.54163 14.5422 3.54163 14.1665V4.24984M5.66663 4.24984V2.83317C5.66663 2.45745 5.81588 2.09711 6.08156 1.83144C6.34723 1.56576 6.70757 1.4165 7.08329 1.4165H9.91663C10.2923 1.4165 10.6527 1.56576 10.9184 1.83144C11.184 2.09711 11.3333 2.45745 11.3333 2.83317V4.24984" stroke="black" stroke-linecap="round" stroke-linejoin="round"/>
<path d="M7.08337 7.7915V12.0415" stroke="black" stroke-linecap="round" stroke-linejoin="round"/>
<path d="M9.91663 7.7915V12.0415" stroke="black" stroke-linecap="round" stroke-linejoin="round"/>
</svg>
