<svg width="56" height="56" viewBox="0 0 56 56" fill="none" xmlns="http://www.w3.org/2000/svg">
<circle cx="28" cy="28" r="28" fill="#1E1E1E"/>
<g clip-path="url(#clip0_238_902)">
<path d="M37.5 48C38.8807 48 40 46.8807 40 45.5C40 44.1193 38.8807 43 37.5 43C36.1193 43 35 44.1193 35 45.5C35 46.8807 36.1193 48 37.5 48Z" stroke="#FAF0E0" stroke-width="3" stroke-linecap="round" stroke-linejoin="round"/>
<path d="M21.5 48C22.8807 48 24 46.8807 24 45.5C24 44.1193 22.8807 43 21.5 43C20.1193 43 19 44.1193 19 45.5C19 46.8807 20.1193 48 21.5 48Z" stroke="#FAF0E0" stroke-width="3" stroke-linecap="round" stroke-linejoin="round"/>
<path d="M8.54169 15H14.7084L18.84 35.6429C18.981 36.3527 19.3671 36.9903 19.9308 37.444C20.4945 37.8978 21.1998 38.1389 21.9234 38.125H36.9084C37.6319 38.1389 38.3372 37.8978 38.9009 37.444C39.4646 36.9903 39.8507 36.3527 39.9917 35.6429L42.4584 22.7083H16.25" stroke="#FAF0E0" stroke-width="3" stroke-linecap="round" stroke-linejoin="round"/>
</g>
<defs>
<clipPath id="clip0_238_902">
<rect width="37" height="37" fill="white" transform="translate(7 13)"/>
</clipPath>
</defs>
</svg>
