<svg width="141" height="28" viewBox="0 0 141 28" fill="none" xmlns="http://www.w3.org/2000/svg">
<g clip-path="url(#clip0_238_40)">
<path d="M76.9826 23.2104H76.9807L75.5164 27.5787L76.9826 23.2124V23.2104Z" fill="black"/>
<path d="M33.0557 22.9644C32.8607 20.6943 32.1534 19.5824 30.2246 18.9907V18.9172C32.5911 18.1515 33.568 16.5716 33.568 14.3749C33.568 11.1669 31.1288 9.21582 27.7356 9.21582H19.1716V27.5802H22.5399V20.2747H26.4205C28.592 20.2747 29.5918 21.2125 29.7868 23.3841C29.9818 25.8515 29.9818 27.2843 30.4463 27.5802H33.8624V27.4081C33.3749 27.1606 33.35 25.6562 33.0576 22.9644M26.9309 17.6564H22.538V12.0042H27.0513C29.2229 12.0042 30.1749 13.0407 30.1749 14.868C30.1749 16.5716 29.0527 17.6564 26.9289 17.6564" fill="black"/>
<path d="M40.7078 9.20264H37.3167V27.5786H40.7078V9.20264Z" fill="black"/>
<path d="M52.4526 16.5718C49.6463 15.9801 47.8896 15.5354 47.8896 13.8318C47.8896 12.3757 49.2315 11.5113 51.2578 11.5113C53.4046 11.5113 54.7465 12.5226 55.0161 14.3249H58.3098C57.9676 10.9428 55.5284 8.89502 51.3075 8.89502C47.427 8.89502 44.5978 10.647 44.5978 14.1276C44.5978 17.8055 47.4289 18.7182 50.8201 19.484C53.699 20.1511 55.5054 20.5939 55.5054 22.5702C55.5054 24.3975 53.871 25.2599 51.8944 25.2599C49.113 25.2599 47.5761 24.0746 47.3314 21.7058H43.9402C44.0874 25.4572 46.8936 28 51.8715 28C55.8973 28 58.9234 25.9522 58.9234 22.2975C58.9234 18.3237 55.8247 17.3124 52.4564 16.5718" fill="black"/>
<path d="M72.7425 11.3799H60.6152V14.3172H64.9699V27.5804H68.363V14.3172H72.7425V11.3799Z" fill="black"/>
<path d="M78.6875 9.21582L72.1001 27.5802H75.5161L76.9804 23.212H76.9843L77.0932 22.8871H83.7762L83.8622 23.212L85.3017 27.5802H88.9127L82.3004 9.21582H78.6894H78.6875ZM79.2495 16.4479C79.8345 14.6959 80.4462 12.0294 80.4462 12.0294H80.4959C80.4959 12.0294 80.9356 14.2763 81.6429 16.4479L82.9255 20.3597H77.9267L79.2533 16.4479H79.2495Z" fill="black"/>
<path d="M112.464 20.3597H121.223V17.6197H112.464V12.128H122.37V9.21582H109.096V27.5782H122.59V24.5926H112.464V20.3597Z" fill="black"/>
<path d="M139.574 22.9644C139.379 20.6943 138.672 19.5824 136.743 18.9907V18.9172C139.11 18.1515 140.087 16.5716 140.087 14.3749C140.087 11.1669 137.647 9.21582 134.254 9.21582H125.69V27.5802H129.057V20.2747H132.937C135.109 20.2747 136.108 21.2125 136.303 23.3841C136.498 25.8515 136.498 27.2843 136.963 27.5802H140.379V27.4081C139.892 27.1606 139.867 25.6562 139.574 22.9644ZM133.449 17.6564H129.057V12.0042H133.57C135.741 12.0042 136.693 13.0407 136.693 14.868C136.693 16.5716 135.571 17.6564 133.448 17.6564" fill="black"/>
<path d="M49.7478 6.93024C51.3154 7.55096 53.1773 6.54157 53.896 4.68135C54.6148 2.82112 53.9247 0.80234 52.3553 0.183556C50.7858 -0.437163 48.9258 0.57223 48.2052 2.43052C47.4864 4.29074 48.1765 6.30952 49.7459 6.93024" fill="black"/>
<path d="M65.2777 9.12924C66.8204 9.81377 68.7205 8.87979 69.5119 7.05051C70.3033 5.22123 69.6916 3.1773 68.1489 2.49277C66.6063 1.81018 64.708 2.74222 63.9147 4.5715C63.1233 6.40079 63.7331 8.44471 65.2758 9.12924" fill="black"/>
<path d="M82.3655 6.88803C83.9082 6.20543 84.5199 4.16151 83.7266 2.33029C82.9352 0.501011 81.0351 -0.431033 79.4924 0.251563C77.9497 0.93416 77.338 2.97808 78.1294 4.8093C78.9208 6.63858 80.821 7.57256 82.3636 6.88803" fill="black"/>
<path d="M37.6242 0.237891C36.0816 0.922422 35.4698 2.96441 36.2612 4.79563C37.0527 6.62491 38.9528 7.55889 40.4955 6.87436C42.0381 6.19176 42.6498 4.14784 41.8565 2.31662C41.0651 0.487339 39.165 -0.444705 37.6223 0.237891" fill="black"/>
<path d="M95.7889 6.88803C97.3316 7.57256 99.2317 6.63858 100.023 4.8093C100.815 2.98002 100.205 0.936094 98.6602 0.251563C97.1175 -0.431033 95.2193 0.501011 94.426 2.33029C93.6346 4.15957 94.2444 6.2035 95.787 6.88803" fill="black"/>
<path d="M0 18.4477C0 12.9928 3.36826 8.87012 8.76091 8.87012C10.835 8.87012 12.544 9.41349 13.7884 10.3765C15.2527 11.5367 16.1321 13.19 16.35 15.116H12.9817C12.6644 13.1417 11.1275 11.7591 8.73606 11.7591C5.27031 11.7591 3.4409 14.6229 3.4409 18.4477C3.4409 22.2726 5.515 25.0881 8.76091 25.0881C11.4697 25.0881 12.9588 23.2607 13.1538 21.0408H16.545C16.4723 22.8682 15.6179 24.7187 14.3485 25.9524C13.0314 27.2848 11.1753 27.977 8.73606 27.977C3.48869 27.9751 0 23.953 0 18.4477Z" fill="black"/>
<path d="M89.4634 18.4477C89.4634 12.9928 92.8316 8.87012 98.2243 8.87012C100.298 8.87012 102.007 9.41349 103.252 10.3765C104.716 11.5367 105.595 13.19 105.813 15.116H102.445C102.128 13.1417 100.591 11.7591 98.1994 11.7591C94.7337 11.7591 92.9043 14.6229 92.9043 18.4477C92.9043 22.2726 94.9784 25.0881 98.2243 25.0881C100.933 25.0881 102.422 23.2607 102.617 21.0408H106.008C105.936 22.8682 105.081 24.7187 103.812 25.9524C102.495 27.2848 100.641 27.977 98.1994 27.977C92.9521 27.977 89.4634 23.953 89.4634 18.4477Z" fill="black"/>
</g>
<defs>
<clipPath id="clip0_238_40">
<rect width="140.379" height="28" fill="white"/>
</clipPath>
</defs>
</svg>
