<svg width="19" height="20" viewBox="0 0 19 20" fill="none" xmlns="http://www.w3.org/2000/svg">
<path d="M15.5 6.5C15.5 4.9087 14.8679 3.38258 13.7426 2.25736C12.6174 1.13214 11.0913 0.5 9.5 0.5C7.9087 0.5 6.38258 1.13214 5.25736 2.25736C4.13214 3.38258 3.5 4.9087 3.5 6.5C3.5 13.5 0.5 15.5 0.5 15.5H18.5C18.5 15.5 15.5 13.5 15.5 6.5Z" stroke="black" stroke-linecap="round" stroke-linejoin="round"/>
<path d="M11.23 18.5C11.0542 18.8031 10.8019 19.0547 10.4982 19.2295C10.1946 19.4044 9.8504 19.4965 9.50002 19.4965C9.14964 19.4965 8.80541 19.4044 8.50179 19.2295C8.19818 19.0547 7.94583 18.8031 7.77002 18.5" stroke="black" stroke-linecap="round" stroke-linejoin="round"/>
</svg>
