<svg width="12" height="15" viewBox="0 0 12 15" fill="none" xmlns="http://www.w3.org/2000/svg">
<path d="M7.375 0.5H1.875C1.51033 0.5 1.16059 0.644866 0.902728 0.902728C0.644866 1.16059 0.5 1.51033 0.5 1.875V12.875C0.5 13.2397 0.644866 13.5894 0.902728 13.8473C1.16059 14.1051 1.51033 14.25 1.875 14.25H10.125C10.4897 14.25 10.8394 14.1051 11.0973 13.8473C11.3551 13.5894 11.5 13.2397 11.5 12.875V4.625L7.375 0.5Z" stroke="#FAF0E0" stroke-linecap="round" stroke-linejoin="round"/>
<path d="M7.375 0.5V4.625H11.5" stroke="#FAF0E0" stroke-linecap="round" stroke-linejoin="round"/>
<path d="M8.75 8.0625H3.25" stroke="#FAF0E0" stroke-linecap="round" stroke-linejoin="round"/>
<path d="M8.75 10.8125H3.25" stroke="#FAF0E0" stroke-linecap="round" stroke-linejoin="round"/>
<path d="M4.625 5.3125H3.9375H3.25" stroke="#FAF0E0" stroke-linecap="round" stroke-linejoin="round"/>
</svg>
