<svg width="19" height="16" viewBox="0 0 19 16" fill="none" xmlns="http://www.w3.org/2000/svg">
<g clip-path="url(#clip0_233_1354)">
<path d="M2.29347 12.555C3.19527 11.3113 4.44566 10.2801 5.90862 9.57587C6.02349 9.52051 6.32981 9.37246 6.33509 9.05704C6.3417 8.73519 6.04461 8.57813 5.75678 8.42492C5.51515 8.29747 5.21411 8.13783 5.13489 7.94086C5.13357 7.90867 5.14809 7.82756 5.15601 7.78379C5.19166 7.58167 5.259 7.20445 4.90778 6.98431C4.86949 6.95985 4.85233 6.93538 4.84837 6.93925C4.84837 6.93925 4.84837 6.90706 4.90382 6.83625C5.00153 6.7088 5.1098 6.44874 4.74538 6.14234C4.73878 6.13719 4.73218 6.13075 4.72557 6.1256C4.92495 5.87069 5.10452 5.5733 5.00813 5.27977C4.91174 4.98752 4.62655 4.90384 4.43774 4.84977C4.40341 4.83947 4.33211 4.81887 4.29117 4.80214C4.3189 4.76094 4.41529 4.66953 4.47471 4.61289C4.74538 4.3554 5.15337 3.96532 5.62474 3.11176C5.836 2.72811 6.72592 1.57587 7.56963 1.12785C8.25094 0.767377 9.15671 0.643785 10.0559 0.789263C11.0277 0.947615 11.8661 1.40465 12.4167 2.07668C13.6935 3.63703 13.1732 5.71491 12.8907 6.32L12.8828 6.33802C12.6755 6.78347 12.3639 7.44649 11.7552 8.02583C11.2429 7.95244 10.8534 7.94086 10.6606 7.94086C9.88951 7.94086 9.6426 8.32837 9.57262 8.49444C9.45379 8.77639 9.52509 9.10339 9.75615 9.32611C10.0268 9.58875 10.4256 9.64797 10.8243 9.48447C11.2455 9.31195 11.6363 9.08279 11.9836 8.80342C13.5443 9.0918 15.67 9.9209 17.129 12.2164L17.1568 12.2576C17.3152 12.5395 17.6519 13.2167 17.9279 14.284C18.048 14.75 18.1642 15.3255 18.2434 16.0027H19.0026C18.6937 13.2514 17.7641 11.8147 17.7074 11.7271L17.5925 11.5688C16.1375 9.45357 14.149 8.56268 12.6147 8.1919C13.1138 7.60999 13.3924 7.0152 13.5667 6.64057L13.5746 6.62383C13.9074 5.91318 14.5161 3.46837 13.0056 1.62351C11.5664 -0.133814 8.85038 -0.382285 7.21313 0.485433C6.23739 1.00297 5.25372 2.24533 4.96588 2.76416C4.54865 3.51987 4.18951 3.86361 3.95184 4.0902C3.69965 4.33094 3.43954 4.57941 3.57818 5.03773C3.68381 5.39049 4.02314 5.48962 4.22648 5.54884C4.22648 5.54884 4.22648 5.54884 4.2278 5.54884C4.20139 5.59003 4.1631 5.64411 4.10764 5.71234C3.80924 6.08312 3.95448 6.39467 4.17234 6.61611C4.10368 6.76673 4.08388 6.91736 4.11161 7.0667C4.14726 7.25595 4.25817 7.42331 4.43509 7.55334C4.43245 7.57652 4.42717 7.61128 4.41793 7.6602C4.39152 7.80954 4.35851 7.99364 4.42717 8.18032C4.58826 8.61675 5.0253 8.86779 5.34218 9.03773C3.86866 9.79216 2.60639 10.8581 1.68214 12.134C0.855594 13.2746 0.294441 14.5672 0 16.0001H0.76713C1.04969 14.723 1.55671 13.572 2.29347 12.555ZM10.5325 8.80986C10.4256 8.85363 10.3292 8.85235 10.2817 8.80729C10.2645 8.79055 10.2618 8.7751 10.2618 8.77124C10.2751 8.73905 10.3939 8.66953 10.658 8.66953C10.7015 8.66953 10.7609 8.66953 10.8336 8.67211C10.7359 8.72232 10.6355 8.76738 10.5325 8.80986Z" fill="black"/>
</g>
<defs>
<clipPath id="clip0_233_1354">
<rect width="19" height="16" fill="white"/>
</clipPath>
</defs>
</svg>
