<?xml version="1.0" encoding="utf-8"?>
<!-- Generator: Adobe Illustrator 19.0.0, SVG Export Plug-In . SVG Version: 6.00 Build 0)  -->
<svg version="1.1" id="Capa_1" xmlns="http://www.w3.org/2000/svg" xmlns:xlink="http://www.w3.org/1999/xlink" x="0px" y="0px"
	 viewBox="-278 74.53 323 78.24" style="enable-background:new -278 74.53 323 78.24;" xml:space="preserve">
<style type="text/css">
	.st0{fill:#FF4338;}
</style>
<g>
	<g>
		<path class="st0" d="M-253.86,135.95c-6.61,0-10.84-5.51-10.84-13.38c0-7.7,3.73-13.47,10.79-13.47c4.87,0,8.01,2.79,8.65,6.76
			h6.86c-0.44-3.87-2.24-7.21-5.22-9.55c-2.54-1.94-6.02-3.03-10.24-3.03c-10.99,0-17.85,8.31-17.85,19.29
			c0,11.08,7.12,19.19,17.8,19.19c4.97,0,8.75-1.39,11.43-4.07c2.59-2.48,4.33-6.21,4.47-9.89h-6.92
			C-245.32,132.27-248.35,135.95-253.86,135.95z M-195.69,140.97h6.92v-37.01h-6.92V140.97z M-204.36,131.68
			c-0.4-4.58-1.84-6.81-5.77-8v-0.15c4.82-1.54,6.81-4.73,6.81-9.15c0-6.46-4.97-10.39-11.88-10.39h-17.45v36.99h6.86v-14.73h7.9
			c4.42,0,6.46,1.88,6.86,6.26c0.4,4.97,0.4,7.85,1.35,8.45h6.96v-0.35C-203.71,140.13-203.76,137.1-204.36,131.68z M-216.85,120.99
			h-8.95V109.6h9.2c4.42,0,6.37,2.08,6.37,5.77C-210.23,118.8-212.52,120.99-216.85,120.99z M-138.71,103.82
			c3.15,1.38,7.01-0.51,8.63-4.19c1.62-3.69,0.37-7.8-2.78-9.19c-3.14-1.38-7.01,0.51-8.63,4.19
			C-143.09,98.31-141.85,102.44-138.71,103.82z M-170.36,99.38c3.19,1.26,6.98-0.79,8.45-4.53c1.47-3.75,0.05-7.81-3.14-9.07
			c-3.19-1.26-6.98,0.77-8.45,4.53C-174.95,94.07-173.55,98.13-170.36,99.38z M-103.89,99.29c3.14-1.38,4.39-5.49,2.78-9.17
			c-1.62-3.69-5.49-5.57-8.63-4.19c-3.15,1.38-4.39,5.49-2.78,9.19C-110.9,98.79-107.04,100.66-103.89,99.29z M-76.54,99.29
			c3.15,1.38,7.01-0.51,8.63-4.19c1.62-3.69,0.37-7.8-2.78-9.19c-3.14-1.38-7.01,0.51-8.63,4.19
			C-80.92,93.8-79.68,97.91-76.54,99.29z M-42.56,126.43h17.85v-5.51h-17.85v-11.06h20.19V104h-27.05v36.99h27.49v-6.02h-20.63
			V126.43z M-71.58,135.95c-6.61,0-10.84-5.51-10.84-13.38c0-7.7,3.73-13.47,10.79-13.47c4.87,0,8.01,2.79,8.65,6.76h6.86
			c-0.44-3.87-2.24-7.21-5.22-9.55c-2.54-1.94-6.02-3.03-10.24-3.03c-10.99,0-17.85,8.31-17.85,19.29c0,11.08,7.12,19.19,17.8,19.19
			c4.97,0,8.75-1.39,11.43-4.07c2.59-2.48,4.33-6.21,4.47-9.89h-6.92C-63.02,132.27-66.06,135.95-71.58,135.95z M12.67,131.68
			c-0.4-4.58-1.84-6.81-5.77-8v-0.15c4.82-1.54,6.81-4.73,6.81-9.15c0-6.46-4.97-10.39-11.88-10.39h-17.45v36.99h6.86v-14.73h7.9
			c4.42,0,6.46,1.88,6.86,6.26c0.4,4.97,0.4,7.85,1.35,8.45h6.96v-0.35C13.33,140.13,13.28,137.1,12.67,131.68z M0.2,120.99h-8.95
			V109.6h9.2c4.42,0,6.37,2.08,6.37,5.77C6.81,118.8,4.52,120.99,0.2,120.99z M-164.84,118.8c-5.71-1.19-9.29-2.08-9.29-5.51
			c0-2.94,2.74-4.67,6.86-4.67c4.38,0,7.1,2.04,7.65,5.66h6.72c-0.69-6.81-5.67-10.94-14.27-10.94c-7.9,0-13.67,3.52-13.67,10.53
			c0,7.41,5.77,9.25,12.67,10.79c5.86,1.35,9.55,2.24,9.55,6.21c0,3.69-3.34,5.42-7.36,5.42c-5.66,0-8.8-2.39-9.29-7.16h-6.92
			c0.29,7.56,6.02,12.68,16.16,12.68c8.2,0,14.37-4.13,14.37-11.48C-151.66,122.33-157.98,120.29-164.84,118.8z M-111.38,103.99
			l-13.42,36.99h6.96l2.99-8.8l0,0l0.23-0.65h13.62l0.17,0.65l2.94,8.8h7.36l-13.47-36.99H-111.38z M-112.94,126.43l2.7-7.88
			c1.19-3.52,2.43-8.91,2.43-8.91h0.09c0,0,0.89,4.53,2.34,8.91l2.62,7.88H-112.94z M-195.06,85.9c-3.15,1.38-4.39,5.49-2.78,9.17
			c1.62,3.69,5.49,5.57,8.63,4.19c3.14-1.38,4.39-5.49,2.78-9.19C-188.03,86.4-191.91,84.52-195.06,85.9z M-123.5,108.34h-24.71
			v5.92h8.88v26.72h6.92v-26.72h8.92L-123.5,108.34L-123.5,108.34z"/>
	</g>
</g>
</svg>
