<?xml version="1.0" encoding="UTF-8"?>
<svg xmlns="http://www.w3.org/2000/svg" viewBox="0 0 750 280" width="750" height="280">
  <defs>
    <style>
      .light-green { fill: #6B8E23; }
      .dark-green { fill: #1B4D3E; }
      .text { fill: #1B4D3E; font-family: 'Brush Script MT', 'Segoe Script', cursive; font-size: 120px; font-weight: bold; }
    </style>
  </defs>

  <!-- Cuadrado principal con azulejos -->
  <rect class="light-green" x="10" y="10" width="200" height="200" rx="15" ry="15"/>

  <!-- Azulejos oscuros (3x3 grid, falta esquina superior derecha) -->
  <!-- Fila 1 -->
  <rect class="dark-green" x="25" y="25" width="50" height="50" rx="8" ry="8"/>
  <rect class="dark-green" x="85" y="25" width="50" height="50" rx="8" ry="8"/>
  <!-- Fila 2 -->
  <rect class="dark-green" x="25" y="85" width="50" height="50" rx="8" ry="8"/>
  <rect class="dark-green" x="85" y="85" width="50" height="50" rx="8" ry="8"/>
  <rect class="dark-green" x="145" y="85" width="50" height="50" rx="8" ry="8"/>
  <!-- Fila 3 -->
  <rect class="dark-green" x="25" y="145" width="50" height="50" rx="8" ry="8"/>
  <rect class="dark-green" x="85" y="145" width="50" height="50" rx="8" ry="8"/>
  <rect class="dark-green" x="145" y="145" width="50" height="50" rx="8" ry="8"/>

  <!-- Azulejo pequeño arriba a la derecha -->
  <rect class="light-green" x="230" y="10" width="60" height="60" rx="10" ry="10"/>
  <rect class="dark-green" x="242" y="22" width="36" height="36" rx="6" ry="6"/>

  <!-- Barra horizontal inferior -->
  <rect class="light-green" x="180" y="210" width="560" height="55" rx="10" ry="10"/>

  <!-- Azulejo en la barra -->
  <rect class="dark-green" x="690" y="220" width="35" height="35" rx="6" ry="6"/>

  <!-- Texto "Jobers" -->
  <text class="text" x="220" y="195">Jobers</text>
</svg>
